<svg width="160" height="32" viewBox="0 0 160 32" fill="none" xmlns="http://www.w3.org/2000/svg">
<path d="M16.193 0L19.8217 11.0557H31.5644L22.0643 17.8885L25.693 28.9443L16.193 22.1115L6.69288 28.9443L10.3216 17.8885L0.821506 11.0557H12.5642L16.193 0Z" fill="#F9BD2E"/>
<path d="M48.518 0L52.1467 11.0557H63.8894L54.3893 17.8885L58.018 28.9443L48.518 22.1115L39.0179 28.9443L42.6466 17.8885L33.1465 11.0557H44.8893L48.518 0Z" fill="#F9BD2E"/>
<path d="M79.8328 0L83.4615 11.0557H95.2042L85.7042 17.8885L89.3329 28.9443L79.8328 22.1115L70.3327 28.9443L73.9614 17.8885L64.4613 11.0557H76.2041L79.8328 0Z" fill="#F9BD2E"/>
<path d="M112.158 0L115.787 11.0557H127.529L118.029 17.8885L121.658 28.9443L112.158 22.1115L102.658 28.9443L106.286 17.8885L96.7863 11.0557H108.529L112.158 0Z" fill="#F9BD2E"/>
<path d="M143.473 0L147.101 11.0557H158.844L149.344 17.8885L152.973 28.9443L143.473 22.1115L133.973 28.9443L137.601 17.8885L128.101 11.0557H139.844L143.473 0Z" fill="#C5C5C5"/>
</svg>
