<svg width="160" height="32" viewBox="0 0 160 32" fill="none" xmlns="http://www.w3.org/2000/svg">
<path d="M16.3649 0L19.9936 11.0557H31.7363L22.2363 17.8885L25.865 28.9443L16.3649 22.1115L6.86481 28.9443L10.4935 17.8885L0.993442 11.0557H12.7362L16.3649 0Z" fill="#F9BD2E"/>
<path d="M48.6899 0L52.3186 11.0557H64.0614L54.5613 17.8885L58.19 28.9443L48.6899 22.1115L39.1898 28.9443L42.8185 17.8885L33.3185 11.0557H45.0612L48.6899 0Z" fill="#F9BD2E"/>
<path d="M80.0047 0L83.6334 11.0557H95.3762L85.8761 17.8885L89.5048 28.9443L80.0047 22.1115L70.5046 28.9443L74.1334 17.8885L64.6333 11.0557H76.376L80.0047 0Z" fill="#F9BD2E"/>
<path d="M112.33 0L115.958 11.0557H127.701L118.201 17.8885L121.83 28.9443L112.33 22.1115L102.83 28.9443L106.458 17.8885L96.9583 11.0557H108.701L112.33 0Z" fill="#F9BD2E"/>
<path d="M143.645 0L147.273 11.0557H159.016L149.516 17.8885L153.145 28.9443L143.645 22.1115L134.144 28.9443L137.773 17.8885L128.273 11.0557H140.016L143.645 0Z" fill="#F9BD2E"/>
</svg>
