<svg width="161" height="32" viewBox="0 0 161 32" fill="none" xmlns="http://www.w3.org/2000/svg">
<path d="M17.1031 0L20.7318 11.0557H32.4746L22.9745 17.8885L26.6032 28.9443L17.1031 22.1115L7.60303 28.9443L11.2317 17.8885L1.73166 11.0557H13.4744L17.1031 0Z" fill="#F9BD2E"/>
<path d="M49.4281 0L53.0568 11.0557H64.7996L55.2995 17.8885L58.9282 28.9443L49.4281 22.1115L39.928 28.9443L43.5567 17.8885L34.0567 11.0557H45.7994L49.4281 0Z" fill="#F9BD2E"/>
<path d="M80.743 0L84.3717 11.0557H96.1144L86.6143 17.8885L90.243 28.9443L80.743 22.1115L71.2429 28.9443L74.8716 17.8885L65.3715 11.0557H77.1143L80.743 0Z" fill="#F9BD2E"/>
<path d="M113.068 0L116.697 11.0557H128.439L118.939 17.8885L122.568 28.9443L113.068 22.1115L103.568 28.9443L107.197 17.8885L97.6965 11.0557H109.439L113.068 0Z" fill="#C5C5C5"/>
<path d="M144.383 0L148.012 11.0557H159.754L150.254 17.8885L153.883 28.9443L144.383 22.1115L134.883 28.9443L138.511 17.8885L129.011 11.0557H140.754L144.383 0Z" fill="#C5C5C5"/>
</svg>
