<svg width="160" height="32" viewBox="0 0 160 32" fill="none" xmlns="http://www.w3.org/2000/svg">
<path d="M16.4445 0L20.0733 11.0557H31.816L22.3159 17.8885L25.9446 28.9443L16.4445 22.1115L6.94446 28.9443L10.5732 17.8885L1.07309 11.0557H12.8158L16.4445 0Z" fill="#F9BD2E"/>
<path d="M48.7695 0L52.3982 11.0557H64.141L54.6409 17.8885L58.2696 28.9443L48.7695 22.1115L39.2695 28.9443L42.8982 17.8885L33.3981 11.0557H45.1408L48.7695 0Z" fill="#F9BD2E"/>
<path d="M80.0844 0L83.7131 11.0557H95.4558L85.9558 17.8885L89.5845 28.9443L80.0844 22.1115L70.5843 28.9443L74.213 17.8885L64.7129 11.0557H76.4557L80.0844 0Z" fill="#F9BD2E"/>
<path d="M112.409 0L116.038 11.0557H127.781L118.281 17.8885L121.909 28.9443L112.409 22.1115L102.909 28.9443L106.538 17.8885L97.0379 11.0557H108.781L112.409 0Z" fill="#F9BD2E"/>
<path d="M143.724 0L147.353 11.0557H159.096L149.596 17.8885L153.224 28.9443L143.724 22.1115L134.224 28.9443L137.853 17.8885L128.353 11.0557H140.096L143.724 0Z" fill="#C5C5C5"/>
</svg>
