<svg width="161" height="32" viewBox="0 0 161 32" fill="none" xmlns="http://www.w3.org/2000/svg">
<path d="M16.7476 0L20.3764 11.0557H32.1191L22.619 17.8885L26.2477 28.9443L16.7476 22.1115L7.24757 28.9443L10.8763 17.8885L1.37619 11.0557H13.1189L16.7476 0Z" fill="#F9BD2E"/>
<path d="M49.0726 0L52.7013 11.0557H64.4441L54.944 17.8885L58.5727 28.9443L49.0726 22.1115L39.5726 28.9443L43.2013 17.8885L33.7012 11.0557H45.4439L49.0726 0Z" fill="#F9BD2E"/>
<path d="M80.3875 0L84.0162 11.0557H95.7589L86.2589 17.8885L89.8876 28.9443L80.3875 22.1115L70.8874 28.9443L74.5161 17.8885L65.016 11.0557H76.7588L80.3875 0Z" fill="#C5C5C5"/>
<path d="M112.712 0L116.341 11.0557H128.084L118.584 17.8885L122.213 28.9443L112.712 22.1115L103.212 28.9443L106.841 17.8885L97.341 11.0557H109.084L112.712 0Z" fill="#C5C5C5"/>
<path d="M144.027 0L147.656 11.0557H159.399L149.899 17.8885L153.527 28.9443L144.027 22.1115L134.527 28.9443L138.156 17.8885L128.656 11.0557H140.399L144.027 0Z" fill="#C5C5C5"/>
</svg>
